<svg id="visual" viewBox="0 0 675 900" width="675" height="900" xmlns="http://www.w3.org/2000/svg" xmlns:xlink="http://www.w3.org/1999/xlink" version="1.1"><path d="M0 82L18.8 83.5C37.7 85 75.3 88 112.8 89.5C150.3 91 187.7 91 225.2 101.5C262.7 112 300.3 133 337.8 134.5C375.3 136 412.7 118 450.2 104.5C487.7 91 525.3 82 562.8 88C600.3 94 637.7 115 656.3 125.5L675 136L675 0L656.3 0C637.7 0 600.3 0 562.8 0C525.3 0 487.7 0 450.2 0C412.7 0 375.3 0 337.8 0C300.3 0 262.7 0 225.2 0C187.7 0 150.3 0 112.8 0C75.3 0 37.7 0 18.8 0L0 0Z" fill="#ff788a"></path><path d="M0 352L18.8 347.5C37.7 343 75.3 334 112.8 335.5C150.3 337 187.7 349 225.2 359.5C262.7 370 300.3 379 337.8 368.5C375.3 358 412.7 328 450.2 316C487.7 304 525.3 310 562.8 313C600.3 316 637.7 316 656.3 316L675 316L675 134L656.3 123.5C637.7 113 600.3 92 562.8 86C525.3 80 487.7 89 450.2 102.5C412.7 116 375.3 134 337.8 132.5C300.3 131 262.7 110 225.2 99.5C187.7 89 150.3 89 112.8 87.5C75.3 86 37.7 83 18.8 81.5L0 80Z" fill="#ff677c"></path><path d="M0 433L18.8 419.5C37.7 406 75.3 379 112.8 371.5C150.3 364 187.7 376 225.2 388C262.7 400 300.3 412 337.8 412C375.3 412 412.7 400 450.2 394C487.7 388 525.3 388 562.8 385C600.3 382 637.7 376 656.3 373L675 370L675 314L656.3 314C637.7 314 600.3 314 562.8 311C525.3 308 487.7 302 450.2 314C412.7 326 375.3 356 337.8 366.5C300.3 377 262.7 368 225.2 357.5C187.7 347 150.3 335 112.8 333.5C75.3 332 37.7 341 18.8 345.5L0 350Z" fill="#ff556d"></path><path d="M0 523L18.8 511C37.7 499 75.3 475 112.8 461.5C150.3 448 187.7 445 225.2 452.5C262.7 460 300.3 478 337.8 481C375.3 484 412.7 472 450.2 461.5C487.7 451 525.3 442 562.8 433C600.3 424 637.7 415 656.3 410.5L675 406L675 368L656.3 371C637.7 374 600.3 380 562.8 383C525.3 386 487.7 386 450.2 392C412.7 398 375.3 410 337.8 410C300.3 410 262.7 398 225.2 386C187.7 374 150.3 362 112.8 369.5C75.3 377 37.7 404 18.8 417.5L0 431Z" fill="#ff3f5e"></path><path d="M0 550L18.8 547C37.7 544 75.3 538 112.8 530.5C150.3 523 187.7 514 225.2 515.5C262.7 517 300.3 529 337.8 527.5C375.3 526 412.7 511 450.2 500.5C487.7 490 525.3 484 562.8 478C600.3 472 637.7 466 656.3 463L675 460L675 404L656.3 408.5C637.7 413 600.3 422 562.8 431C525.3 440 487.7 449 450.2 459.5C412.7 470 375.3 482 337.8 479C300.3 476 262.7 458 225.2 450.5C187.7 443 150.3 446 112.8 459.5C75.3 473 37.7 497 18.8 509L0 521Z" fill="#ff204e"></path><path d="M0 667L18.8 655C37.7 643 75.3 619 112.8 611.5C150.3 604 187.7 613 225.2 614.5C262.7 616 300.3 610 337.8 608.5C375.3 607 412.7 610 450.2 611.5C487.7 613 525.3 613 562.8 608.5C600.3 604 637.7 595 656.3 590.5L675 586L675 458L656.3 461C637.7 464 600.3 470 562.8 476C525.3 482 487.7 488 450.2 498.5C412.7 509 375.3 524 337.8 525.5C300.3 527 262.7 515 225.2 513.5C187.7 512 150.3 521 112.8 528.5C75.3 536 37.7 542 18.8 545L0 548Z" fill="#ee1c49"></path><path d="M0 730L18.8 713.5C37.7 697 75.3 664 112.8 653.5C150.3 643 187.7 655 225.2 665.5C262.7 676 300.3 685 337.8 692.5C375.3 700 412.7 706 450.2 701.5C487.7 697 525.3 682 562.8 670C600.3 658 637.7 649 656.3 644.5L675 640L675 584L656.3 588.5C637.7 593 600.3 602 562.8 606.5C525.3 611 487.7 611 450.2 609.5C412.7 608 375.3 605 337.8 606.5C300.3 608 262.7 614 225.2 612.5C187.7 611 150.3 602 112.8 609.5C75.3 617 37.7 641 18.8 653L0 665Z" fill="#de1843"></path><path d="M0 856L18.8 854.5C37.7 853 75.3 850 112.8 847C150.3 844 187.7 841 225.2 838C262.7 835 300.3 832 337.8 830.5C375.3 829 412.7 829 450.2 829C487.7 829 525.3 829 562.8 829C600.3 829 637.7 829 656.3 829L675 829L675 638L656.3 642.5C637.7 647 600.3 656 562.8 668C525.3 680 487.7 695 450.2 699.5C412.7 704 375.3 698 337.8 690.5C300.3 683 262.7 674 225.2 663.5C187.7 653 150.3 641 112.8 651.5C75.3 662 37.7 695 18.8 711.5L0 728Z" fill="#ce153e"></path><path d="M0 901L18.8 901C37.7 901 75.3 901 112.8 901C150.3 901 187.7 901 225.2 901C262.7 901 300.3 901 337.8 901C375.3 901 412.7 901 450.2 901C487.7 901 525.3 901 562.8 901C600.3 901 637.7 901 656.3 901L675 901L675 827L656.3 827C637.7 827 600.3 827 562.8 827C525.3 827 487.7 827 450.2 827C412.7 827 375.3 827 337.8 828.5C300.3 830 262.7 833 225.2 836C187.7 839 150.3 842 112.8 845C75.3 848 37.7 851 18.8 852.5L0 854Z" fill="#be1139"></path></svg>